#!OML:ASF X:\für Bonn\!DataBase\2005_08_10_Bjorn_Final\c3d\bjorn.ASF
:FULLY-SPECIFIED
:DEGREES
351
root -0.265941 2.07361 21.9166 -435.201 -176.756 368.061
lowerback 58.4438 1.39498 24.893
upperback 26.5746 -2.39961 4.71971
thorax 11.6763 -6.45867 -6.02106
lowerneck 9.69561 11.7288 4.82101
upperneck 10.7995 15.7302 -8.73157
head 2.7735 7.57211 -3.34989
rclavicle 6.42074e-014 2.22639e-014
rhumerus -235.745 -172.435 112.085
rradius 25.2917
rwrist -17.916
rhand -12.1976 7.27666
rfingers 7.12502
rthumb 13.8666 -22.2411
lclavicle 6.42074e-014 2.22639e-014
lhumerus -426.417 -36.4512 -273.158
lradius 43.3807
lwrist 34.0528
lhand -22.1025 2.6062
lfingers 7.12502
lthumb 4.30975 32.5423
rfemur -70.0483 -33.3304 4.43565
rtibia 121.511
rfoot 35.6564 19.5256
rtoes -2.64195
lfemur -75.4703 11.7995 -6.20306
ltibia 118.597
lfoot 31.0888 -2.94967
ltoes 2.50291
352
root -0.275119 2.07697 21.903 -435.256 -176.858 368.146
lowerback 58.9086 1.31088 25.0778
upperback 26.5827 -2.49161 4.80391
thorax 11.7136 -6.58794 -5.95627
lowerneck 9.69613 11.7622 4.61465
upperneck 10.4451 15.7606 -8.64319
head 2.6467 7.60244 -3.30352
rclavicle 1.35174e-014 0
rhumerus -235.372 -172.547 112.225
rradius 25.3357
rwrist -17.0662
rhand -12.3084 7.47431
rfingers 7.12502
rthumb 13.7598 -22.0507
lclavicle 1.35174e-014 0
lhumerus -426.067 -36.2036 -273.303
lradius 43.3267
lwrist 33.5482
lhand -21.972 2.86598
lfingers 7.12502
lthumb 4.43585 32.7995
rfemur -69.9131 -33.2893 4.4289
rtibia 121.54
rfoot 35.6547 19.5126
rtoes -2.47297
lfemur -75.1308 12.319 -6.4728
ltibia 118.623
lfoot 30.8336 -1.99016
ltoes 3.35826
353
root -0.285186 2.08019 21.8905 -435.312 -176.962 368.253
lowerback 59.353 1.18724 25.3351
upperback 26.6009 -2.59689 4.86622
thorax 11.779 -6.70631 -5.94312
lowerneck 9.6488 11.7734 4.48217
upperneck 9.95543 15.7346 -8.28943
head 2.77038 7.62892 -3.49698
rclavicle -1.05356e-014 -1.66979e-014
rhumerus -235.024 -172.583 112.345
rradius 25.4803
rwrist -16.026
rhand -12.5291 7.6963
rfingers 7.12502
rthumb 13.5471 -21.843
lclavicle -1.05356e-014 -1.66979e-014
lhumerus -425.782 -36.1391 -273.386
lradius 43.3793
lwrist 33.0285
lhand -21.88 3.22075
lfingers 7.12502
lthumb 4.52462 33.1524
rfemur -69.7635 -33.2641 4.40722
rtibia 121.565
rfoot 35.6614 19.5039
rtoes -2.41357
lfemur -74.7887 12.8194 -6.74392
ltibia 118.667
lfoot 30.583 -1.0241
ltoes 5.09864
354
root -0.294865 2.08267 21.8785 -435.377 -177.074 368.374
lowerback 59.7893 1.07468 25.5821
upperback 26.6288 -2.71304 4.96691
thorax 11.8607 -6.84465 -5.88387
lowerneck 9.46478 11.8036 4.30082
upperneck 9.73015 15.7727 -8.21796
head 2.70163 7.65526 -3.43427
rclavicle -3.93594e-014 6.36111e-015
rhumerus -234.67 -172.744 112.444
rradius 25.7941
rwrist -14.9592
rhand -12.7987 8.05933
rfingers 7.12502
rthumb 13.2872 -21.4971
lclavicle -3.93594e-014 6.36111e-015
lhumerus -425.508 -36.0897 -273.381
lradius 43.4521
lwrist 32.4565
lhand -21.8262 3.52346
lfingers 7.12502
lthumb 4.57657 33.454
rfemur -69.5978 -33.2166 4.3974
rtibia 121.587
rfoot 35.6567 19.4753
rtoes -2.35822
lfemur -74.4364 13.313 -7.00474
ltibia 118.709
lfoot 30.3837 -0.199234
ltoes 6.94594
355
root -0.304182 2.08486 21.869 -435.461 -177.154 368.486
lowerback 60.2493 0.937022 25.832
upperback 26.6519 -2.84346 5.02191
thorax 11.9344 -6.9805 -5.86912
lowerneck 9.219 11.8004 4.27694
upperneck 9.57159 15.7858 -8.22737
head 2.68799 7.67028 -3.41997
rclavicle -5.1684e-015 5.32743e-014
rhumerus -234.327 -172.933 112.454
rradius 26.1853
rwrist -13.7769
rhand -13.2522 8.65937
rfingers 7.12502
rthumb 12.8501 -20.9251
lclavicle -5.1684e-015 5.32743e-014
lhumerus -425.337 -36.1911 -273.304
lradius 43.6137
lwrist 31.7723
lhand -21.8673 3.87926
lfingers 7.12502
lthumb 4.53693 33.8107
rfemur -69.4045 -33.1959 4.35127
rtibia 121.596
rfoot 35.6207 19.5119
rtoes -2.41394
lfemur -74.078 13.8084 -7.37002
ltibia 118.776
lfoot 30.2356 0.181358
ltoes 7.59993
356
root -0.313536 2.08723 21.861 -435.532 -177.246 368.624
lowerback 60.6797 0.792823 26.101
upperback 26.6741 -2.97316 5.09496
thorax 12.0159 -7.11409 -5.84309
lowerneck 8.9172 11.7752 4.29797
upperneck 9.4599 15.7778 -8.29829
head 2.70926 7.6726 -3.42952
rclavicle -1.66979e-014 -3.37934e-014
rhumerus -233.987 -173.131 112.47
rradius 26.699
rwrist -12.4411
rhand -13.851 9.37626
rfingers 7.12502
rthumb 12.2728 -20.2436
lclavicle -1.66979e-014 -3.37934e-014
lhumerus -425.151 -36.3862 -273.158
lradius 43.7708
lwrist 30.9653
lhand -21.9687 3.91785
lfingers 7.12502
lthumb 4.43902 33.8513
rfemur -69.2033 -33.1688 4.32264
rtibia 121.593
rfoot 35.6042 19.4816
rtoes -2.4228
lfemur -73.7235 14.2493 -7.64437
ltibia 118.807
lfoot 30.2223 0.899268
ltoes 9.6772
